<?xml version="1.0" encoding="utf-8" standalone="no"?>
<!DOCTYPE svg PUBLIC "-//W3C//DTD SVG 1.1//EN"
  "http://www.w3.org/Graphics/SVG/1.1/DTD/svg11.dtd">
<!-- Created with matplotlib (https://matplotlib.org/) -->
<svg height="252.018125pt" version="1.1" viewBox="0 0 372.425 252.018125" width="372.425pt" xmlns="http://www.w3.org/2000/svg" xmlns:xlink="http://www.w3.org/1999/xlink">
 <defs>
  <style type="text/css">
*{stroke-linecap:butt;stroke-linejoin:round;}
  </style>
 </defs>
 <g id="figure_1">
  <g id="patch_1">
   <path d="M -0 252.018125 
L 372.425 252.018125 
L 372.425 0 
L -0 0 
z
" style="fill:#ffffff;"/>
  </g>
  <g id="axes_1">
   <g id="patch_2">
    <path d="M 26.925 228.14 
L 361.725 228.14 
L 361.725 10.7 
L 26.925 10.7 
z
" style="fill:#ffffff;"/>
   </g>
   <g id="PathCollection_1">
    <defs>
     <path d="M 0 3 
C 0.795609 3 1.55874 2.683901 2.12132 2.12132 
C 2.683901 1.55874 3 0.795609 3 0 
C 3 -0.795609 2.683901 -1.55874 2.12132 -2.12132 
C 1.55874 -2.683901 0.795609 -3 0 -3 
C -0.795609 -3 -1.55874 -2.683901 -2.12132 -2.12132 
C -2.683901 -1.55874 -3 -0.795609 -3 0 
C -3 0.795609 -2.683901 1.55874 -2.12132 2.12132 
C -1.55874 2.683901 -0.795609 3 0 3 
z
" id="me4a598332b" style="stroke:#1f77b4;"/>
    </defs>
    <g clip-path="url(#pcc4d6f3a08)">
     <use style="fill:#1f77b4;stroke:#1f77b4;" x="42.814324" xlink:href="#me4a598332b" y="218.028548"/>
     <use style="fill:#1f77b4;stroke:#1f77b4;" x="43.156482" xlink:href="#me4a598332b" y="193.599885"/>
     <use style="fill:#1f77b4;stroke:#1f77b4;" x="44.296127" xlink:href="#me4a598332b" y="205.168794"/>
     <use style="fill:#1f77b4;stroke:#1f77b4;" x="45.758273" xlink:href="#me4a598332b" y="212.974923"/>
     <use style="fill:#1f77b4;stroke:#1f77b4;" x="46.664862" xlink:href="#me4a598332b" y="190.691493"/>
     <use style="fill:#1f77b4;stroke:#1f77b4;" x="46.702356" xlink:href="#me4a598332b" y="179.899402"/>
     <use style="fill:#1f77b4;stroke:#1f77b4;" x="48.631489" xlink:href="#me4a598332b" y="182.61961"/>
     <use style="fill:#1f77b4;stroke:#1f77b4;" x="49.489491" xlink:href="#me4a598332b" y="175.469411"/>
     <use style="fill:#1f77b4;stroke:#1f77b4;" x="50.871567" xlink:href="#me4a598332b" y="187.683717"/>
     <use style="fill:#1f77b4;stroke:#1f77b4;" x="52.523407" xlink:href="#me4a598332b" y="179.945255"/>
     <use style="fill:#1f77b4;stroke:#1f77b4;" x="53.977233" xlink:href="#me4a598332b" y="181.805261"/>
     <use style="fill:#1f77b4;stroke:#1f77b4;" x="56.13655" xlink:href="#me4a598332b" y="173.384415"/>
     <use style="fill:#1f77b4;stroke:#1f77b4;" x="57.646406" xlink:href="#me4a598332b" y="177.620075"/>
     <use style="fill:#1f77b4;stroke:#1f77b4;" x="59.29718" xlink:href="#me4a598332b" y="189.443744"/>
     <use style="fill:#1f77b4;stroke:#1f77b4;" x="61.442378" xlink:href="#me4a598332b" y="154.755478"/>
     <use style="fill:#1f77b4;stroke:#1f77b4;" x="63.560407" xlink:href="#me4a598332b" y="161.065285"/>
     <use style="fill:#1f77b4;stroke:#1f77b4;" x="66.308494" xlink:href="#me4a598332b" y="178.094895"/>
     <use style="fill:#1f77b4;stroke:#1f77b4;" x="68.125228" xlink:href="#me4a598332b" y="140.28136"/>
     <use style="fill:#1f77b4;stroke:#1f77b4;" x="70.952852" xlink:href="#me4a598332b" y="159.650124"/>
     <use style="fill:#1f77b4;stroke:#1f77b4;" x="73.317862" xlink:href="#me4a598332b" y="140.556927"/>
     <use style="fill:#1f77b4;stroke:#1f77b4;" x="75.671299" xlink:href="#me4a598332b" y="126.121761"/>
     <use style="fill:#1f77b4;stroke:#1f77b4;" x="80.094735" xlink:href="#me4a598332b" y="132.776679"/>
     <use style="fill:#1f77b4;stroke:#1f77b4;" x="83.595914" xlink:href="#me4a598332b" y="112.838494"/>
     <use style="fill:#1f77b4;stroke:#1f77b4;" x="86.637922" xlink:href="#me4a598332b" y="148.787781"/>
     <use style="fill:#1f77b4;stroke:#1f77b4;" x="91.685111" xlink:href="#me4a598332b" y="118.500663"/>
     <use style="fill:#1f77b4;stroke:#1f77b4;" x="94.43443" xlink:href="#me4a598332b" y="133.197685"/>
     <use style="fill:#1f77b4;stroke:#1f77b4;" x="99.454208" xlink:href="#me4a598332b" y="133.014616"/>
     <use style="fill:#1f77b4;stroke:#1f77b4;" x="104.11671" xlink:href="#me4a598332b" y="124.939861"/>
     <use style="fill:#1f77b4;stroke:#1f77b4;" x="109.844791" xlink:href="#me4a598332b" y="117.272133"/>
     <use style="fill:#1f77b4;stroke:#1f77b4;" x="115.238866" xlink:href="#me4a598332b" y="107.946251"/>
     <use style="fill:#1f77b4;stroke:#1f77b4;" x="120.524875" xlink:href="#me4a598332b" y="124.85859"/>
     <use style="fill:#1f77b4;stroke:#1f77b4;" x="126.78874" xlink:href="#me4a598332b" y="87.490951"/>
     <use style="fill:#1f77b4;stroke:#1f77b4;" x="132.905578" xlink:href="#me4a598332b" y="91.422309"/>
     <use style="fill:#1f77b4;stroke:#1f77b4;" x="139.536227" xlink:href="#me4a598332b" y="121.223817"/>
     <use style="fill:#1f77b4;stroke:#1f77b4;" x="147.682392" xlink:href="#me4a598332b" y="68.029039"/>
     <use style="fill:#1f77b4;stroke:#1f77b4;" x="155.910087" xlink:href="#me4a598332b" y="58.044011"/>
     <use style="fill:#1f77b4;stroke:#1f77b4;" x="164.90013" xlink:href="#me4a598332b" y="66.630873"/>
     <use style="fill:#1f77b4;stroke:#1f77b4;" x="174.053623" xlink:href="#me4a598332b" y="85.811791"/>
     <use style="fill:#1f77b4;stroke:#1f77b4;" x="183.235141" xlink:href="#me4a598332b" y="97.2671"/>
     <use style="fill:#1f77b4;stroke:#1f77b4;" x="193.71828" xlink:href="#me4a598332b" y="58.921484"/>
     <use style="fill:#1f77b4;stroke:#1f77b4;" x="204.594735" xlink:href="#me4a598332b" y="79.735847"/>
     <use style="fill:#1f77b4;stroke:#1f77b4;" x="216.371536" xlink:href="#me4a598332b" y="49.639368"/>
     <use style="fill:#1f77b4;stroke:#1f77b4;" x="228.989961" xlink:href="#me4a598332b" y="63.131312"/>
     <use style="fill:#1f77b4;stroke:#1f77b4;" x="243.97278" xlink:href="#me4a598332b" y="47.189934"/>
     <use style="fill:#1f77b4;stroke:#1f77b4;" x="257.551" xlink:href="#me4a598332b" y="54.177818"/>
     <use style="fill:#1f77b4;stroke:#1f77b4;" x="273.078012" xlink:href="#me4a598332b" y="45.141081"/>
     <use style="fill:#1f77b4;stroke:#1f77b4;" x="289.320216" xlink:href="#me4a598332b" y="53.380587"/>
     <use style="fill:#1f77b4;stroke:#1f77b4;" x="307.76866" xlink:href="#me4a598332b" y="20.811452"/>
     <use style="fill:#1f77b4;stroke:#1f77b4;" x="325.735006" xlink:href="#me4a598332b" y="44.950184"/>
     <use style="fill:#1f77b4;stroke:#1f77b4;" x="346.42588" xlink:href="#me4a598332b" y="37.153991"/>
    </g>
   </g>
   <g id="matplotlib.axis_1">
    <g id="xtick_1">
     <g id="line2d_1">
      <defs>
       <path d="M 0 0 
L 0 3.5 
" id="mad22214c69" style="stroke:#000000;stroke-width:0.8;"/>
      </defs>
      <g>
       <use style="stroke:#000000;stroke-width:0.8;" x="29.461364" xlink:href="#mad22214c69" y="228.14"/>
      </g>
     </g>
     <g id="text_1">
      <!-- 0 -->
      <defs>
       <path d="M 31.78125 66.40625 
Q 24.171875 66.40625 20.328125 58.90625 
Q 16.5 51.421875 16.5 36.375 
Q 16.5 21.390625 20.328125 13.890625 
Q 24.171875 6.390625 31.78125 6.390625 
Q 39.453125 6.390625 43.28125 13.890625 
Q 47.125 21.390625 47.125 36.375 
Q 47.125 51.421875 43.28125 58.90625 
Q 39.453125 66.40625 31.78125 66.40625 
z
M 31.78125 74.21875 
Q 44.046875 74.21875 50.515625 64.515625 
Q 56.984375 54.828125 56.984375 36.375 
Q 56.984375 17.96875 50.515625 8.265625 
Q 44.046875 -1.421875 31.78125 -1.421875 
Q 19.53125 -1.421875 13.0625 8.265625 
Q 6.59375 17.96875 6.59375 36.375 
Q 6.59375 54.828125 13.0625 64.515625 
Q 19.53125 74.21875 31.78125 74.21875 
z
" id="DejaVuSans-48"/>
      </defs>
      <g transform="translate(26.280114 242.738437)scale(0.1 -0.1)">
       <use xlink:href="#DejaVuSans-48"/>
      </g>
     </g>
    </g>
    <g id="xtick_2">
     <g id="line2d_2">
      <g>
       <use style="stroke:#000000;stroke-width:0.8;" x="92.870455" xlink:href="#mad22214c69" y="228.14"/>
      </g>
     </g>
     <g id="text_2">
      <!-- 50 -->
      <defs>
       <path d="M 10.796875 72.90625 
L 49.515625 72.90625 
L 49.515625 64.59375 
L 19.828125 64.59375 
L 19.828125 46.734375 
Q 21.96875 47.46875 24.109375 47.828125 
Q 26.265625 48.1875 28.421875 48.1875 
Q 40.625 48.1875 47.75 41.5 
Q 54.890625 34.8125 54.890625 23.390625 
Q 54.890625 11.625 47.5625 5.09375 
Q 40.234375 -1.421875 26.90625 -1.421875 
Q 22.3125 -1.421875 17.546875 -0.640625 
Q 12.796875 0.140625 7.71875 1.703125 
L 7.71875 11.625 
Q 12.109375 9.234375 16.796875 8.0625 
Q 21.484375 6.890625 26.703125 6.890625 
Q 35.15625 6.890625 40.078125 11.328125 
Q 45.015625 15.765625 45.015625 23.390625 
Q 45.015625 31 40.078125 35.4375 
Q 35.15625 39.890625 26.703125 39.890625 
Q 22.75 39.890625 18.8125 39.015625 
Q 14.890625 38.140625 10.796875 36.28125 
z
" id="DejaVuSans-53"/>
      </defs>
      <g transform="translate(86.507955 242.738437)scale(0.1 -0.1)">
       <use xlink:href="#DejaVuSans-53"/>
       <use x="63.623047" xlink:href="#DejaVuSans-48"/>
      </g>
     </g>
    </g>
    <g id="xtick_3">
     <g id="line2d_3">
      <g>
       <use style="stroke:#000000;stroke-width:0.8;" x="156.279545" xlink:href="#mad22214c69" y="228.14"/>
      </g>
     </g>
     <g id="text_3">
      <!-- 100 -->
      <defs>
       <path d="M 12.40625 8.296875 
L 28.515625 8.296875 
L 28.515625 63.921875 
L 10.984375 60.40625 
L 10.984375 69.390625 
L 28.421875 72.90625 
L 38.28125 72.90625 
L 38.28125 8.296875 
L 54.390625 8.296875 
L 54.390625 0 
L 12.40625 0 
z
" id="DejaVuSans-49"/>
      </defs>
      <g transform="translate(146.735795 242.738437)scale(0.1 -0.1)">
       <use xlink:href="#DejaVuSans-49"/>
       <use x="63.623047" xlink:href="#DejaVuSans-48"/>
       <use x="127.246094" xlink:href="#DejaVuSans-48"/>
      </g>
     </g>
    </g>
    <g id="xtick_4">
     <g id="line2d_4">
      <g>
       <use style="stroke:#000000;stroke-width:0.8;" x="219.688636" xlink:href="#mad22214c69" y="228.14"/>
      </g>
     </g>
     <g id="text_4">
      <!-- 150 -->
      <g transform="translate(210.144886 242.738437)scale(0.1 -0.1)">
       <use xlink:href="#DejaVuSans-49"/>
       <use x="63.623047" xlink:href="#DejaVuSans-53"/>
       <use x="127.246094" xlink:href="#DejaVuSans-48"/>
      </g>
     </g>
    </g>
    <g id="xtick_5">
     <g id="line2d_5">
      <g>
       <use style="stroke:#000000;stroke-width:0.8;" x="283.097727" xlink:href="#mad22214c69" y="228.14"/>
      </g>
     </g>
     <g id="text_5">
      <!-- 200 -->
      <defs>
       <path d="M 19.1875 8.296875 
L 53.609375 8.296875 
L 53.609375 0 
L 7.328125 0 
L 7.328125 8.296875 
Q 12.9375 14.109375 22.625 23.890625 
Q 32.328125 33.6875 34.8125 36.53125 
Q 39.546875 41.84375 41.421875 45.53125 
Q 43.3125 49.21875 43.3125 52.78125 
Q 43.3125 58.59375 39.234375 62.25 
Q 35.15625 65.921875 28.609375 65.921875 
Q 23.96875 65.921875 18.8125 64.3125 
Q 13.671875 62.703125 7.8125 59.421875 
L 7.8125 69.390625 
Q 13.765625 71.78125 18.9375 73 
Q 24.125 74.21875 28.421875 74.21875 
Q 39.75 74.21875 46.484375 68.546875 
Q 53.21875 62.890625 53.21875 53.421875 
Q 53.21875 48.921875 51.53125 44.890625 
Q 49.859375 40.875 45.40625 35.40625 
Q 44.1875 33.984375 37.640625 27.21875 
Q 31.109375 20.453125 19.1875 8.296875 
z
" id="DejaVuSans-50"/>
      </defs>
      <g transform="translate(273.553977 242.738437)scale(0.1 -0.1)">
       <use xlink:href="#DejaVuSans-50"/>
       <use x="63.623047" xlink:href="#DejaVuSans-48"/>
       <use x="127.246094" xlink:href="#DejaVuSans-48"/>
      </g>
     </g>
    </g>
    <g id="xtick_6">
     <g id="line2d_6">
      <g>
       <use style="stroke:#000000;stroke-width:0.8;" x="346.506818" xlink:href="#mad22214c69" y="228.14"/>
      </g>
     </g>
     <g id="text_6">
      <!-- 250 -->
      <g transform="translate(336.963068 242.738437)scale(0.1 -0.1)">
       <use xlink:href="#DejaVuSans-50"/>
       <use x="63.623047" xlink:href="#DejaVuSans-53"/>
       <use x="127.246094" xlink:href="#DejaVuSans-48"/>
      </g>
     </g>
    </g>
   </g>
   <g id="matplotlib.axis_2">
    <g id="ytick_1">
     <g id="line2d_7">
      <defs>
       <path d="M 0 0 
L -3.5 0 
" id="m491ea8707d" style="stroke:#000000;stroke-width:0.8;"/>
      </defs>
      <g>
       <use style="stroke:#000000;stroke-width:0.8;" x="26.925" xlink:href="#m491ea8707d" y="203.242544"/>
      </g>
     </g>
     <g id="text_7">
      <!-- 40 -->
      <defs>
       <path d="M 37.796875 64.3125 
L 12.890625 25.390625 
L 37.796875 25.390625 
z
M 35.203125 72.90625 
L 47.609375 72.90625 
L 47.609375 25.390625 
L 58.015625 25.390625 
L 58.015625 17.1875 
L 47.609375 17.1875 
L 47.609375 0 
L 37.796875 0 
L 37.796875 17.1875 
L 4.890625 17.1875 
L 4.890625 26.703125 
z
" id="DejaVuSans-52"/>
      </defs>
      <g transform="translate(7.2 207.041763)scale(0.1 -0.1)">
       <use xlink:href="#DejaVuSans-52"/>
       <use x="63.623047" xlink:href="#DejaVuSans-48"/>
      </g>
     </g>
    </g>
    <g id="ytick_2">
     <g id="line2d_8">
      <g>
       <use style="stroke:#000000;stroke-width:0.8;" x="26.925" xlink:href="#m491ea8707d" y="170.218411"/>
      </g>
     </g>
     <g id="text_8">
      <!-- 42 -->
      <g transform="translate(7.2 174.017629)scale(0.1 -0.1)">
       <use xlink:href="#DejaVuSans-52"/>
       <use x="63.623047" xlink:href="#DejaVuSans-50"/>
      </g>
     </g>
    </g>
    <g id="ytick_3">
     <g id="line2d_9">
      <g>
       <use style="stroke:#000000;stroke-width:0.8;" x="26.925" xlink:href="#m491ea8707d" y="137.194277"/>
      </g>
     </g>
     <g id="text_9">
      <!-- 44 -->
      <g transform="translate(7.2 140.993496)scale(0.1 -0.1)">
       <use xlink:href="#DejaVuSans-52"/>
       <use x="63.623047" xlink:href="#DejaVuSans-52"/>
      </g>
     </g>
    </g>
    <g id="ytick_4">
     <g id="line2d_10">
      <g>
       <use style="stroke:#000000;stroke-width:0.8;" x="26.925" xlink:href="#m491ea8707d" y="104.170143"/>
      </g>
     </g>
     <g id="text_10">
      <!-- 46 -->
      <defs>
       <path d="M 33.015625 40.375 
Q 26.375 40.375 22.484375 35.828125 
Q 18.609375 31.296875 18.609375 23.390625 
Q 18.609375 15.53125 22.484375 10.953125 
Q 26.375 6.390625 33.015625 6.390625 
Q 39.65625 6.390625 43.53125 10.953125 
Q 47.40625 15.53125 47.40625 23.390625 
Q 47.40625 31.296875 43.53125 35.828125 
Q 39.65625 40.375 33.015625 40.375 
z
M 52.59375 71.296875 
L 52.59375 62.3125 
Q 48.875 64.0625 45.09375 64.984375 
Q 41.3125 65.921875 37.59375 65.921875 
Q 27.828125 65.921875 22.671875 59.328125 
Q 17.53125 52.734375 16.796875 39.40625 
Q 19.671875 43.65625 24.015625 45.921875 
Q 28.375 48.1875 33.59375 48.1875 
Q 44.578125 48.1875 50.953125 41.515625 
Q 57.328125 34.859375 57.328125 23.390625 
Q 57.328125 12.15625 50.6875 5.359375 
Q 44.046875 -1.421875 33.015625 -1.421875 
Q 20.359375 -1.421875 13.671875 8.265625 
Q 6.984375 17.96875 6.984375 36.375 
Q 6.984375 53.65625 15.1875 63.9375 
Q 23.390625 74.21875 37.203125 74.21875 
Q 40.921875 74.21875 44.703125 73.484375 
Q 48.484375 72.75 52.59375 71.296875 
z
" id="DejaVuSans-54"/>
      </defs>
      <g transform="translate(7.2 107.969362)scale(0.1 -0.1)">
       <use xlink:href="#DejaVuSans-52"/>
       <use x="63.623047" xlink:href="#DejaVuSans-54"/>
      </g>
     </g>
    </g>
    <g id="ytick_5">
     <g id="line2d_11">
      <g>
       <use style="stroke:#000000;stroke-width:0.8;" x="26.925" xlink:href="#m491ea8707d" y="71.146009"/>
      </g>
     </g>
     <g id="text_11">
      <!-- 48 -->
      <defs>
       <path d="M 31.78125 34.625 
Q 24.75 34.625 20.71875 30.859375 
Q 16.703125 27.09375 16.703125 20.515625 
Q 16.703125 13.921875 20.71875 10.15625 
Q 24.75 6.390625 31.78125 6.390625 
Q 38.8125 6.390625 42.859375 10.171875 
Q 46.921875 13.96875 46.921875 20.515625 
Q 46.921875 27.09375 42.890625 30.859375 
Q 38.875 34.625 31.78125 34.625 
z
M 21.921875 38.8125 
Q 15.578125 40.375 12.03125 44.71875 
Q 8.5 49.078125 8.5 55.328125 
Q 8.5 64.0625 14.71875 69.140625 
Q 20.953125 74.21875 31.78125 74.21875 
Q 42.671875 74.21875 48.875 69.140625 
Q 55.078125 64.0625 55.078125 55.328125 
Q 55.078125 49.078125 51.53125 44.71875 
Q 48 40.375 41.703125 38.8125 
Q 48.828125 37.15625 52.796875 32.3125 
Q 56.78125 27.484375 56.78125 20.515625 
Q 56.78125 9.90625 50.3125 4.234375 
Q 43.84375 -1.421875 31.78125 -1.421875 
Q 19.734375 -1.421875 13.25 4.234375 
Q 6.78125 9.90625 6.78125 20.515625 
Q 6.78125 27.484375 10.78125 32.3125 
Q 14.796875 37.15625 21.921875 38.8125 
z
M 18.3125 54.390625 
Q 18.3125 48.734375 21.84375 45.5625 
Q 25.390625 42.390625 31.78125 42.390625 
Q 38.140625 42.390625 41.71875 45.5625 
Q 45.3125 48.734375 45.3125 54.390625 
Q 45.3125 60.0625 41.71875 63.234375 
Q 38.140625 66.40625 31.78125 66.40625 
Q 25.390625 66.40625 21.84375 63.234375 
Q 18.3125 60.0625 18.3125 54.390625 
z
" id="DejaVuSans-56"/>
      </defs>
      <g transform="translate(7.2 74.945228)scale(0.1 -0.1)">
       <use xlink:href="#DejaVuSans-52"/>
       <use x="63.623047" xlink:href="#DejaVuSans-56"/>
      </g>
     </g>
    </g>
    <g id="ytick_6">
     <g id="line2d_12">
      <g>
       <use style="stroke:#000000;stroke-width:0.8;" x="26.925" xlink:href="#m491ea8707d" y="38.121876"/>
      </g>
     </g>
     <g id="text_12">
      <!-- 50 -->
      <g transform="translate(7.2 41.921094)scale(0.1 -0.1)">
       <use xlink:href="#DejaVuSans-53"/>
       <use x="63.623047" xlink:href="#DejaVuSans-48"/>
      </g>
     </g>
    </g>
   </g>
   <g id="line2d_13">
    <path clip-path="url(#pcc4d6f3a08)" d="M 42.143182 203.242544 
L 45.217562 192.489994 
L 48.291942 183.660253 
L 51.366322 176.168846 
L 54.440702 169.662959 
L 57.515083 163.913185 
L 60.589463 158.761929 
L 63.663843 154.096253 
L 66.738223 149.832444 
L 69.812603 145.906731 
L 72.886983 142.269413 
L 75.961364 138.881002 
L 79.035744 135.709602 
L 82.110124 132.729082 
L 85.184504 129.917763 
L 88.258884 127.257462 
L 91.333264 124.732778 
L 94.407645 122.330553 
L 97.482025 120.039453 
L 100.556405 117.849651 
L 103.630785 115.752567 
L 106.705165 113.740669 
L 109.779545 111.807303 
L 112.853926 109.94657 
L 115.928306 108.153208 
L 119.002686 106.42251 
L 122.077066 104.750243 
L 125.151446 103.132591 
L 128.225826 101.566098 
L 131.300207 100.047628 
L 134.374587 98.574324 
L 137.448967 97.143576 
L 140.523347 95.752995 
L 143.597727 94.400387 
L 146.672107 93.083733 
L 149.746488 91.80117 
L 152.820868 90.550979 
L 155.895248 89.331565 
L 158.969628 88.141449 
L 162.044008 86.979256 
L 165.118388 85.843706 
L 168.192769 84.733604 
L 171.267149 83.647836 
L 174.341529 82.585357 
L 177.415909 81.545188 
L 180.490289 80.526413 
L 183.564669 79.528169 
L 186.63905 78.549644 
L 189.71343 77.590075 
L 192.78781 76.648741 
L 195.86219 75.724962 
L 198.93657 74.818096 
L 202.01095 73.927533 
L 205.085331 73.052699 
L 208.159711 72.193047 
L 211.234091 71.34806 
L 214.308471 70.517244 
L 217.382851 69.700134 
L 220.457231 68.896283 
L 223.531612 68.105269 
L 226.605992 67.326688 
L 229.680372 66.560155 
L 232.754752 65.805303 
L 235.829132 65.061782 
L 238.903512 64.329255 
L 241.977893 63.607403 
L 245.052273 62.89592 
L 248.126653 62.194511 
L 251.201033 61.502894 
L 254.275413 60.820802 
L 257.349793 60.147974 
L 260.424174 59.484162 
L 263.498554 58.829128 
L 266.572934 58.182643 
L 269.647314 57.544487 
L 272.721694 56.914447 
L 275.796074 56.292321 
L 278.870455 55.67791 
L 281.944835 55.071027 
L 285.019215 54.47149 
L 288.093595 53.879121 
L 291.167975 53.293753 
L 294.242355 52.715222 
L 297.316736 52.143369 
L 300.391116 51.578042 
L 303.465496 51.019095 
L 306.539876 50.466384 
L 309.614256 49.919772 
L 312.688636 49.379126 
L 315.763017 48.844317 
L 318.837397 48.31522 
L 321.911777 47.791715 
L 324.986157 47.273685 
L 328.060537 46.761016 
L 331.134917 46.253599 
L 334.209298 45.751326 
L 337.283678 45.254095 
L 340.358058 44.761806 
L 343.432438 44.274361 
L 346.506818 43.791666 
" style="fill:none;stroke:#d62728;stroke-linecap:square;stroke-width:1.5;"/>
   </g>
   <g id="patch_3">
    <path d="M 26.925 228.14 
L 26.925 10.7 
" style="fill:none;stroke:#000000;stroke-linecap:square;stroke-linejoin:miter;stroke-width:0.8;"/>
   </g>
   <g id="patch_4">
    <path d="M 361.725 228.14 
L 361.725 10.7 
" style="fill:none;stroke:#000000;stroke-linecap:square;stroke-linejoin:miter;stroke-width:0.8;"/>
   </g>
   <g id="patch_5">
    <path d="M 26.925 228.14 
L 361.725 228.14 
" style="fill:none;stroke:#000000;stroke-linecap:square;stroke-linejoin:miter;stroke-width:0.8;"/>
   </g>
   <g id="patch_6">
    <path d="M 26.925 10.7 
L 361.725 10.7 
" style="fill:none;stroke:#000000;stroke-linecap:square;stroke-linejoin:miter;stroke-width:0.8;"/>
   </g>
  </g>
 </g>
 <defs>
  <clipPath id="pcc4d6f3a08">
   <rect height="217.44" width="334.8" x="26.925" y="10.7"/>
  </clipPath>
 </defs>
</svg>
